<mxfile host="65bd71144e">
    <diagram id="S22Hv3pzq5iM8Lb1_hDw" name="Page-1">
        <mxGraphModel dx="2538" dy="2718" grid="1" gridSize="10" guides="1" tooltips="1" connect="1" arrows="1" fold="1" page="1" pageScale="1" pageWidth="850" pageHeight="1100" background="#000000" math="0" shadow="0">
            <root>
                <mxCell id="0"/>
                <mxCell id="1" parent="0"/>
                <mxCell id="9" style="edgeStyle=none;html=1;exitX=1;exitY=0.5;exitDx=0;exitDy=0;fontSize=9;" parent="1" source="2" target="10" edge="1">
                    <mxGeometry relative="1" as="geometry">
                        <mxPoint x="140" y="-90" as="targetPoint"/>
                    </mxGeometry>
                </mxCell>
                <mxCell id="2" value="&lt;font style=&quot;font-size: 10px;&quot;&gt;Cancer Type:&lt;br&gt;&lt;br&gt;Breast&amp;nbsp;&lt;br&gt;Lung&amp;nbsp;&lt;br&gt;Kidney&amp;nbsp;&lt;br&gt;Colon&lt;br&gt;Lukeimia&amp;nbsp;&lt;br&gt;Prostate&amp;nbsp;&lt;br&gt;Thyroid&amp;nbsp;&lt;br&gt;Liver&lt;br&gt;Stomatch&lt;br&gt;skin&lt;br&gt;Pancreatic&amp;nbsp;&lt;br&gt;Ovarion&amp;nbsp;&lt;br&gt;Bladder&amp;nbsp;&lt;br&gt;Small Intestine&amp;nbsp;&lt;br&gt;Brain Cancer&lt;/font&gt;&amp;nbsp;" style="whiteSpace=wrap;html=1;fillColor=#1ba1e2;fontColor=#ffffff;strokeColor=#006EAF;" parent="1" vertex="1">
                    <mxGeometry x="-710" y="-840" width="410" height="260" as="geometry"/>
                </mxCell>
                <mxCell id="8" value="&lt;meta charset=&quot;utf-8&quot;&gt;&lt;br style=&quot;border-color: rgb(0, 0, 0); color: rgb(255, 255, 255); font-family: Helvetica; font-size: 12px; font-style: normal; font-variant-ligatures: normal; font-variant-caps: normal; font-weight: 400; letter-spacing: normal; orphans: 2; text-align: center; text-indent: 0px; text-transform: none; widows: 2; word-spacing: 0px; -webkit-text-stroke-width: 0px; background-color: rgb(42, 37, 47); text-decoration-thickness: initial; text-decoration-style: initial; text-decoration-color: initial;&quot;&gt;&lt;span style=&quot;color: rgb(255, 255, 255); font-family: Helvetica; font-size: 12px; font-style: normal; font-variant-ligatures: normal; font-variant-caps: normal; font-weight: 400; letter-spacing: normal; orphans: 2; text-align: center; text-indent: 0px; text-transform: none; widows: 2; word-spacing: 0px; -webkit-text-stroke-width: 0px; background-color: rgb(42, 37, 47); text-decoration-thickness: initial; text-decoration-style: initial; text-decoration-color: initial; float: none; display: inline !important;&quot;&gt;Attributes:&lt;/span&gt;&lt;br style=&quot;border-color: rgb(0, 0, 0); color: rgb(255, 255, 255); font-family: Helvetica; font-size: 12px; font-style: normal; font-variant-ligatures: normal; font-variant-caps: normal; font-weight: 400; letter-spacing: normal; orphans: 2; text-align: center; text-indent: 0px; text-transform: none; widows: 2; word-spacing: 0px; -webkit-text-stroke-width: 0px; background-color: rgb(42, 37, 47); text-decoration-thickness: initial; text-decoration-style: initial; text-decoration-color: initial;&quot;&gt;&lt;span style=&quot;color: rgb(255, 255, 255); font-family: Helvetica; font-size: 12px; font-style: normal; font-variant-ligatures: normal; font-variant-caps: normal; font-weight: 400; letter-spacing: normal; orphans: 2; text-align: center; text-indent: 0px; text-transform: none; widows: 2; word-spacing: 0px; -webkit-text-stroke-width: 0px; background-color: rgb(42, 37, 47); text-decoration-thickness: initial; text-decoration-style: initial; text-decoration-color: initial; float: none; display: inline !important;&quot;&gt;num of people affected&amp;nbsp;&lt;/span&gt;&lt;br style=&quot;border-color: rgb(0, 0, 0); color: rgb(255, 255, 255); font-family: Helvetica; font-size: 12px; font-style: normal; font-variant-ligatures: normal; font-variant-caps: normal; font-weight: 400; letter-spacing: normal; orphans: 2; text-align: center; text-indent: 0px; text-transform: none; widows: 2; word-spacing: 0px; -webkit-text-stroke-width: 0px; background-color: rgb(42, 37, 47); text-decoration-thickness: initial; text-decoration-style: initial; text-decoration-color: initial;&quot;&gt;&lt;span style=&quot;color: rgb(255, 255, 255); font-family: Helvetica; font-size: 12px; font-style: normal; font-variant-ligatures: normal; font-variant-caps: normal; font-weight: 400; letter-spacing: normal; orphans: 2; text-align: center; text-indent: 0px; text-transform: none; widows: 2; word-spacing: 0px; -webkit-text-stroke-width: 0px; background-color: rgb(42, 37, 47); text-decoration-thickness: initial; text-decoration-style: initial; text-decoration-color: initial; float: none; display: inline !important;&quot;&gt;death rate&amp;nbsp;&lt;/span&gt;&lt;br style=&quot;border-color: rgb(0, 0, 0); color: rgb(255, 255, 255); font-family: Helvetica; font-size: 12px; font-style: normal; font-variant-ligatures: normal; font-variant-caps: normal; font-weight: 400; letter-spacing: normal; orphans: 2; text-align: center; text-indent: 0px; text-transform: none; widows: 2; word-spacing: 0px; -webkit-text-stroke-width: 0px; background-color: rgb(42, 37, 47); text-decoration-thickness: initial; text-decoration-style: initial; text-decoration-color: initial;&quot;&gt;&lt;span style=&quot;color: rgb(255, 255, 255); font-family: Helvetica; font-size: 12px; font-style: normal; font-variant-ligatures: normal; font-variant-caps: normal; font-weight: 400; letter-spacing: normal; orphans: 2; text-align: center; text-indent: 0px; text-transform: none; widows: 2; word-spacing: 0px; -webkit-text-stroke-width: 0px; background-color: rgb(42, 37, 47); text-decoration-thickness: initial; text-decoration-style: initial; text-decoration-color: initial; float: none; display: inline !important;&quot;&gt;average recovery time&amp;nbsp;&lt;/span&gt;&lt;br style=&quot;border-color: rgb(0, 0, 0); color: rgb(255, 255, 255); font-family: Helvetica; font-size: 12px; font-style: normal; font-variant-ligatures: normal; font-variant-caps: normal; font-weight: 400; letter-spacing: normal; orphans: 2; text-align: center; text-indent: 0px; text-transform: none; widows: 2; word-spacing: 0px; -webkit-text-stroke-width: 0px; background-color: rgb(42, 37, 47); text-decoration-thickness: initial; text-decoration-style: initial; text-decoration-color: initial;&quot;&gt;&lt;span style=&quot;color: rgb(255, 255, 255); font-family: Helvetica; font-size: 12px; font-style: normal; font-variant-ligatures: normal; font-variant-caps: normal; font-weight: 400; letter-spacing: normal; orphans: 2; text-align: center; text-indent: 0px; text-transform: none; widows: 2; word-spacing: 0px; -webkit-text-stroke-width: 0px; background-color: rgb(42, 37, 47); text-decoration-thickness: initial; text-decoration-style: initial; text-decoration-color: initial; float: none; display: inline !important;&quot;&gt;Symptoms&lt;/span&gt;" style="whiteSpace=wrap;html=1;fillColor=#1ba1e2;fontColor=#ffffff;strokeColor=#006EAF;" parent="1" vertex="1">
                    <mxGeometry x="-130" y="-800" width="250" height="210" as="geometry"/>
                </mxCell>
                <mxCell id="11" style="edgeStyle=none;html=1;fontSize=9;" parent="1" source="10" edge="1" target="12">
                    <mxGeometry relative="1" as="geometry">
                        <mxPoint x="600" y="60" as="targetPoint"/>
                        <Array as="points">
                            <mxPoint x="550" y="-350"/>
                        </Array>
                    </mxGeometry>
                </mxCell>
                <mxCell id="10" value="Jokes Array" style="whiteSpace=wrap;html=1;fillColor=#1ba1e2;fontColor=#ffffff;strokeColor=#006EAF;fontSize=9;" parent="1" vertex="1">
                    <mxGeometry x="410" y="-786.75" width="280" height="153.5" as="geometry"/>
                </mxCell>
                <mxCell id="14" style="edgeStyle=none;html=1;" edge="1" parent="1" source="12">
                    <mxGeometry relative="1" as="geometry">
                        <mxPoint x="190" y="-279.9999999999998" as="targetPoint"/>
                    </mxGeometry>
                </mxCell>
                <mxCell id="12" value="Controller/Mapper&lt;br&gt;&lt;br&gt;SQL DATA BASE" style="whiteSpace=wrap;html=1;fillColor=#1ba1e2;fontColor=#ffffff;strokeColor=#006EAF;" parent="1" vertex="1">
                    <mxGeometry x="440" y="-350" width="200" height="140" as="geometry"/>
                </mxCell>
                <mxCell id="18" style="edgeStyle=none;html=1;entryX=1.024;entryY=0.577;entryDx=0;entryDy=0;entryPerimeter=0;" edge="1" parent="1" source="15" target="17">
                    <mxGeometry relative="1" as="geometry"/>
                </mxCell>
                <mxCell id="15" value="JavaScript:&lt;br&gt;1. Fetch The Api&lt;br&gt;2. Plot using a create template body and onclick function to fetch data based on each model&amp;nbsp;&amp;nbsp;" style="whiteSpace=wrap;html=1;fillColor=#1ba1e2;fontColor=#ffffff;strokeColor=#006EAF;" vertex="1" parent="1">
                    <mxGeometry x="-40" y="-350" width="190" height="140" as="geometry"/>
                </mxCell>
                <mxCell id="17" value="&lt;a style=&quot;text-decoration: none; color: rgb(41, 98, 255); border-radius: 12px; display: block; height: 180px; overflow: hidden; position: relative; cursor: pointer; background-color: rgba(0, 0, 0, 0.03); box-shadow: rgba(0, 0, 0, 0.3) 0px 2px 12px 0px; font-family: Roboto, HelveticaNeue, Arial, sans-serif; font-style: normal; font-variant-caps: normal; font-weight: 400; letter-spacing: normal; text-align: start; text-indent: 0px; text-transform: none; word-spacing: 0px; text-size-adjust: auto; -webkit-text-stroke-width: 0px;&quot; data-navigation=&quot;server&quot; href=&quot;https://www.google.com/imgres?imgurl=https%3A%2F%2Fcdn.britannica.com%2F20%2F55620-050-F5E29FDF%2Fview-human-muscular-system.jpg&amp;amp;tbnid=TH6r6V4HbhjWiM&amp;amp;vet=12ahUKEwjYpc7khvqBAxXcLUQIHQwxCJ8QMygoegUIARDTAQ..i&amp;amp;imgrefurl=https%3A%2F%2Fwww.britannica.com%2Fscience%2Fhuman-body&amp;amp;docid=YsEy_UW4-pjuHM&amp;amp;w=1139&amp;amp;h=1601&amp;amp;q=body&amp;amp;client=safari&amp;amp;ved=2ahUKEwjYpc7khvqBAxXcLUQIHQwxCJ8QMygoegUIARDTAQ&quot; data-nav=&quot;1&quot; role=&quot;button&quot; tabindex=&quot;0&quot; class=&quot;FRuiCf islib nfEiy&quot;&gt;&lt;div style=&quot;margin-left: 17px; margin-right: 17px; position: relative; background-color: rgb(248, 248, 242); height: 180px;&quot; class=&quot;fR600b islir&quot;&gt;&lt;img style=&quot;border: none;&quot; src=&quot;https://encrypted-tbn0.gstatic.com/images?q=tbn:ANd9GcSwYP7JFe75vVs8iRatJgGmWadmB7boMqQKPw&amp;amp;usqp=CAU&quot; alt=&quot;Human body | Organs, Systems, Structure, Diagram, &amp;amp; Facts | Britannica&quot; height=&quot;180&quot; width=&quot;129&quot; class=&quot;rg_i Q4LuWd&quot; data-ils=&quot;4&quot;&gt;&lt;/div&gt;&lt;/a&gt;" style="text;whiteSpace=wrap;html=1;" vertex="1" parent="1">
                    <mxGeometry x="-330" y="-390" width="200" height="200" as="geometry"/>
                </mxCell>
            </root>
        </mxGraphModel>
    </diagram>
</mxfile>